<svg xmlns="http://www.w3.org/2000/svg" version="1.1" xmlns:xlink="http://www.w3.org/1999/xlink" xmlns:svgjs="http://svgjs.dev/svgjs" width="1000" height="1000" viewBox="0 0 1000 1000"><rect width="1000" height="1000" fill="#000000"></rect><g transform="matrix(0.7,0,0,0.7,149.57578339697722,416.58992765491746)"><svg viewBox="0 0 396 95" data-background-color="#c8c8c8" preserveAspectRatio="xMidYMid meet" height="239" width="1000" xmlns="http://www.w3.org/2000/svg" xmlns:xlink="http://www.w3.org/1999/xlink"><g id="tight-bounds" transform="matrix(1,0,0,1,0.23998539256717777,-0.13624104732315345)"><svg viewBox="0 0 395.52 95.2724820946463" height="95.2724820946463" width="395.52"><g><svg viewBox="0 0 395.52 95.2724820946463" height="95.2724820946463" width="395.52"><g transform="matrix(1,0,0,1,0,58.882216076911796)"><svg viewBox="0 0 395.52 36.39026601773451" height="36.39026601773451" width="395.52"><g id="textblocktransform"><svg viewBox="0 0 395.52 36.39026601773451" height="36.39026601773451" width="395.52" id="textblock"><g><svg viewBox="0 0 395.52 36.39026601773451" height="36.39026601773451" width="395.52"><g transform="matrix(1,0,0,1,0,0)"><svg width="395.52" viewBox="4.199999809265137 -33.08000183105469 366.15997314453125 33.69000244140625" height="36.39026601773451" data-palette-color="#000000"><path d="M20.36 0.2L14.7-12.62Q13.96-12.57 13.13-12.57 12.3-12.57 10.67-12.7L10.67-12.7 10.67 0 4.2 0 4.2-32.64Q7.62-33.08 12.6-33.08L12.6-33.08Q19.38-33.08 22.72-30.58 26.05-28.08 26.05-22.85L26.05-22.85Q26.05-18.8 23-15.92L23-15.92Q22-14.99 20.7-14.31L20.7-14.31 25.68-3.81Q27.15-0.56 27.93 0.05L27.93 0.05 27.81 0.17Q25.44-0.22 20.36 0.2L20.36 0.2ZM13.06-27.32L13.06-27.32Q11.82-27.32 10.67-27.2L10.67-27.2 10.67-17.87Q11.87-17.7 13.48-17.7 15.09-17.7 16.19-17.98 17.29-18.26 18.09-18.85L18.09-18.85Q19.82-20.14 19.82-22.73 19.82-25.32 18.02-26.37L18.02-26.37Q16.33-27.32 13.06-27.32ZM37.99-7.03L35.69 0.2Q33.59 0 30.78 0L30.78 0 28.85 0 39.48-29.76Q40.18-31.76 40.18-32.09 40.18-32.42 40.16-32.5L40.16-32.5 40.18-32.54Q41.77-32.47 43.55-32.47L43.55-32.47Q45.02-32.47 47.07-32.52L47.07-32.52 47.09-32.47Q47.04-32.37 47.04-32.2L47.04-32.2Q47.04-31.74 47.78-29.74L47.78-29.74 58.62 0.07Q58.13 0.05 57.47 0.05L57.47 0.05Q57.47 0.05 56.2 0L56.2 0Q55.59 0 55.1 0L55.1 0 51.32 0 49.02-7.03 37.99-7.03ZM39.84-12.89L47.12-12.89 43.43-24.24 39.84-12.89ZM69.28-10.6L69.28-32.59Q70.8-32.47 71.48-32.47L71.48-32.47 73.38-32.47Q74.58-32.47 75.75-32.67L75.75-32.67 75.75-10.79Q75.75-5.42 72.9-2.34L72.9-2.34Q70.19 0.61 65.57 0.61L65.57 0.61Q62.4 0.61 60.25-0.66L60.25-0.66Q59.44-1.12 58.64-1.78L58.64-1.78 58.64-8.84 58.81-8.89Q59.83-7.28 61.21-6.25 62.59-5.22 64.64-5.22L64.64-5.22Q69.28-5.22 69.28-10.6L69.28-10.6ZM88.2-7.03L85.91 0.2Q83.81 0 81 0L81 0 79.07 0 89.69-29.76Q90.4-31.76 90.4-32.09 90.4-32.42 90.37-32.5L90.37-32.5 90.4-32.54Q91.98-32.47 93.77-32.47L93.77-32.47Q95.23-32.47 97.28-32.52L97.28-32.52 97.31-32.47Q97.26-32.37 97.26-32.2L97.26-32.2Q97.26-31.74 97.99-29.74L97.99-29.74 108.83 0.07Q108.34 0.05 107.68 0.05L107.68 0.05Q107.68 0.05 106.41 0L106.41 0Q105.8 0 105.31 0L105.31 0 101.53 0 99.24-7.03 88.2-7.03ZM90.06-12.89L97.33-12.89 93.64-24.24 90.06-12.89ZM124.48-27L124.48 0.15Q123.31 0 118.45 0L118.45 0 117.67 0 117.67-27 112.83-27Q110.68-27 110.29-26.78 109.9-26.56 109.68-26.39L109.68-26.39 109.61-26.42 109.61-32.67 109.68-32.74Q110.49-32.47 114.03-32.47L114.03-32.47 129.34-32.47Q131.48-32.47 131.87-32.69 132.27-32.91 132.49-33.08L132.49-33.08 132.56-33.06 132.56-26.81 132.49-26.73Q131.68-27 128.14-27L128.14-27 124.48-27ZM181.06-19.63L181.14-19.58Q180.67-18.75 180.67-15.6L180.67-15.6 180.67-8.03Q180.67-4.59 177.11-2.05L177.11-2.05Q173.42 0.61 168.08 0.61L168.08 0.61Q160.65 0.61 156.24-4.05L156.24-4.05Q151.96-8.5 151.96-15.38L151.96-15.38Q151.96-22.71 156.31-27.59L156.31-27.59Q161.17-33.08 169.69-33.08L169.69-33.08Q175.38-33.08 178.7-30.88L178.7-30.88 178.31-23.68 178.11-23.63Q177.26-25.12 174.74-26.07L174.74-26.07Q172.35-26.98 169.72-26.98 167.1-26.98 165.13-26.15 163.17-25.32 161.8-23.78L161.8-23.78Q158.92-20.63 158.92-15.45L158.92-15.45Q158.92-10.94 161.46-8.2L161.46-8.2Q164-5.49 168-5.49L168-5.49Q172.42-5.49 173.96-7.79L173.96-7.79Q174.45-8.52 174.45-9.45L174.45-9.45 174.45-13.5 171.3-13.5Q168.76-13.5 168.54-13.06L168.54-13.06 168.47-13.09 168.25-19.46Q168.93-19.26 173.79-19.26L173.79-19.26 176.67-19.26Q179.36-19.26 181.06-19.63L181.06-19.63ZM190.34-3.86Q188.12-5.98 186.84-8.96 185.55-11.94 185.55-15.49 185.55-19.04 186.75-22.22 187.95-25.39 190.17-27.81 192.39-30.22 195.54-31.65 198.69-33.08 202.59-33.08L202.59-33.08Q209.33-33.08 213.95-28.83L213.95-28.83Q218.88-24.29 218.88-16.58L218.88-16.58Q218.88-9.11 213.8-4.15L213.8-4.15Q210.68-1.1 206.35 0.05L206.35 0.05Q204.23 0.61 201.39 0.61 198.54 0.61 195.55-0.56 192.56-1.73 190.34-3.86ZM192.34-15.82L192.34-15.82Q192.34-13.55 193.1-11.65 193.85-9.74 195.2-8.37L195.2-8.37Q198.05-5.49 202.55-5.49L202.55-5.49Q206.82-5.49 209.41-8.25L209.41-8.25Q212.04-11.11 212.04-16.04L212.04-16.04Q212.04-20.68 209.53-23.78L209.53-23.78Q206.82-27.1 202.11-27.1L202.11-27.1Q197.54-27.1 194.86-23.73L194.86-23.73Q192.34-20.58 192.34-15.82ZM244.76-30.66L244.76-30.66 244.29-23.49 244.12-23.44Q242.31-26.15 237.97-26.95L237.97-26.95Q236.6-27.22 235.34-27.22 234.09-27.22 233.2-27 232.3-26.78 231.67-26.37L231.67-26.37Q230.33-25.49 230.33-24.07L230.33-24.07Q230.33-22.22 231.5-21.29L231.5-21.29Q232.96-20.17 236.36-19.71 239.75-19.26 241.8-18.48 243.85-17.7 245.17-16.5L245.17-16.5Q247.66-14.26 247.66-10.16L247.66-10.16Q247.66-4.79 243.61-1.88L243.61-1.88Q240.14 0.61 234.87 0.61L234.87 0.61Q230.62 0.61 226.47-1L226.47-1Q225.1-1.54 224.08-2.25L224.08-2.25 224.35-10.4 224.44-10.47Q227.47-5.25 234.38-5.25L234.38-5.25Q239.29-5.25 240.87-7.62L240.87-7.62Q241.41-8.42 241.41-9.41 241.41-10.4 241.09-11.05 240.78-11.69 240.04-12.16L240.04-12.16Q238.63-13.09 235.28-13.4 231.94-13.72 229.81-14.6 227.69-15.48 226.42-16.77L226.42-16.77Q224.13-19.12 224.13-23.32L224.13-23.32Q224.13-27.66 227.18-30.35L227.18-30.35Q230.28-33.08 235.54-33.08 240.8-33.08 244.76-30.66ZM265.94 0.02L265.9 0.1Q265.16 0 263.41 0L263.41 0 260.57 0Q259.74 0 259.21 0.05L259.21 0.05 259.18 0Q259.28-0.17 259.28-0.39 259.28-0.61 259.24-0.85 259.21-1.1 259.05-1.73 258.89-2.37 258.57-3.56L258.57-3.56 250.27-32.57Q251.83-32.47 254.05-32.47 256.28-32.47 256.94-32.67L256.94-32.67 262.7-10.57 268.31-32.57Q268.68-32.54 268.97-32.52L268.97-32.52 269.51-32.52Q270.31-32.47 271.54-32.47 272.76-32.47 274.05-32.67L274.05-32.67 279.76-10.57 284.67-32.57Q286.13-32.47 288.5-32.47 290.87-32.47 291.38-32.67L291.38-32.67 284.35-6.91Q283.01-2.47 282.94-1.64 282.86-0.81 282.86-0.49 282.86-0.17 282.96 0.02L282.96 0.02 282.91 0.1Q282.13 0 280.45 0L280.45 0Q278.98 0 277.79 0 276.59 0 276.05 0.05L276.05 0.05 276.03 0Q276.12-0.17 276.12-0.39 276.12-0.61 276.1-0.83 276.08-1.05 275.97-1.67 275.86-2.29 275.61-3.52L275.61-3.52 274.95-6.84 270.95-22.05 267.14-6.91Q265.97-2.25 265.92-1.54L265.92-1.54Q265.82-0.2 265.94 0.02L265.94 0.02ZM300.68-7.03L298.39 0.2Q296.29 0 293.48 0L293.48 0 291.55 0 302.17-29.76Q302.88-31.76 302.88-32.09 302.88-32.42 302.86-32.5L302.86-32.5 302.88-32.54Q304.47-32.47 306.25-32.47L306.25-32.47Q307.71-32.47 309.77-32.52L309.77-32.52 309.79-32.47Q309.74-32.37 309.74-32.2L309.74-32.2Q309.74-31.74 310.47-29.74L310.47-29.74 321.31 0.07Q320.82 0.05 320.17 0.05L320.17 0.05Q320.17 0.05 318.9 0L318.9 0Q318.29 0 317.8 0L317.8 0 314.01 0 311.72-7.03 300.68-7.03ZM302.54-12.89L309.81-12.89 306.13-24.24 302.54-12.89ZM331.83-20.58L331.83 0.15Q330.66 0 327.32 0L327.32 0 325.36 0 325.36-32.57Q326.93-32.47 328.81-32.47 330.69-32.47 331.47-32.67L331.47-32.67 339.67-18.73 347.56-32.67Q348.34-32.47 350.53-32.47 352.73-32.47 354.29-32.57L354.29-32.57 354.29 0 352.34 0Q349 0 347.82 0.15L347.82 0.15 347.82-21.73 339.84-7.45 331.83-20.58ZM363.57 0L363.57-32.57Q366.01-32.47 366.52-32.47L366.52-32.47 368.28-32.47Q369.57-32.47 370.36-32.67L370.36-32.67 370.33 0 363.57 0Z" opacity="1" transform="matrix(1,0,0,1,0,0)" fill="#ffffff" class="undefined-text-0" data-fill-palette-color="primary" id="text-0"></path></svg></g></svg></g></svg></g></svg></g><g transform="matrix(1,0,0,1,175.39104353242595,0)"><svg viewBox="0 0 44.73791293514806 50.2913476365091" height="50.2913476365091" width="44.73791293514806"><g><svg xmlns="http://www.w3.org/2000/svg" xmlns:xlink="http://www.w3.org/1999/xlink" version="1.1" x="8" y="0" viewBox="30 15 40 70" enable-background="new 0 0 100 100" xml:space="preserve" height="50.2913476365091" width="28.73791293514806" class="icon-icon-0" data-fill-palette-color="accent" id="icon-0"><circle fill="#ffffff" cx="37.5" cy="22.5" r="7.5" data-fill-palette-color="accent"></circle><circle fill="#ffffff" cx="37.5" cy="50" r="7.5" data-fill-palette-color="accent"></circle><circle fill="#ffffff" cx="37.5" cy="77.5" r="7.5" data-fill-palette-color="accent"></circle><circle fill="#ffffff" cx="62.5" cy="50" r="7.5" data-fill-palette-color="accent"></circle><circle fill="#ffffff" cx="62.5" cy="77.5" r="2.5" data-fill-palette-color="accent"></circle><circle fill="#ffffff" cx="62.5" cy="22.5" r="2.5" data-fill-palette-color="accent"></circle></svg></g></svg></g><g><rect width="175.39104353242595" height="3.2817117442338284" y="46.00963589227527" x="220.12895646757403" fill="#ffffff" data-fill-palette-color="accent"></rect><rect width="175.39104353242595" height="3.2817117442338284" y="46.00963589227527" x="0" fill="#ffffff" data-fill-palette-color="accent"></rect><rect width="175.39104353242595" height="3.2817117442338284" y="39.446212403807614" x="220.12895646757403" fill="#ffffff" data-fill-palette-color="accent"></rect><rect width="175.39104353242595" height="3.2817117442338284" y="39.446212403807614" x="0" fill="#ffffff" data-fill-palette-color="accent"></rect></g></svg></g><defs></defs></svg><rect width="395.52" height="95.2724820946463" fill="none" stroke="none" visibility="hidden"></rect></g></svg></g></svg>